<?xml version="1.0" standalone="no"?>
<!DOCTYPE svg PUBLIC "-//W3C//DTD SVG 20010904//EN"
 "http://www.w3.org/TR/2001/REC-SVG-20010904/DTD/svg10.dtd">
<svg version="1.0" xmlns="http://www.w3.org/2000/svg"
 width="512.000000pt" height="512.000000pt" viewBox="0 0 512.000000 512.000000"
 preserveAspectRatio="xMidYMid meet">

<g transform="translate(0.000000,512.000000) scale(0.100000,-0.100000)"
fill="#000000" stroke="none">
<path d="M2450 4711 l0 -299 -77 -7 c-364 -33 -772 -214 -1050 -467 -180 -163
-308 -333 -418 -553 -107 -214 -166 -413 -192 -650 l-8 -70 -297 -3 -298 -2 0
-105 0 -105 299 0 299 0 7 -77 c33 -364 214 -772 467 -1050 163 -180 333 -308
553 -418 214 -107 413 -166 650 -192 l70 -8 3 -297 2 -298 105 0 105 0 0 299
0 299 78 7 c335 30 693 177 971 399 383 305 643 784 686 1259 l7 77 299 0 299
0 0 105 0 105 -297 2 -298 3 -8 70 c-26 237 -85 436 -192 650 -185 371 -459
645 -830 830 -214 107 -413 166 -650 192 l-70 8 -3 298 -2 297 -105 0 -105 0
0 -299z m8 -748 l-3 -237 -100 -17 c-371 -66 -687 -308 -850 -652 -46 -97 -89
-238 -100 -332 l-7 -55 -240 0 -241 0 7 73 c21 218 119 501 239 687 247 386
625 650 1057 740 108 22 137 26 198 29 l42 1 -2 -237z m444 207 c208 -45 436
-146 608 -267 122 -87 306 -271 393 -393 157 -221 270 -521 293 -773 l7 -77
-239 2 -239 3 -12 73 c-21 125 -52 222 -108 337 -167 342 -484 574 -867 638
l-73 12 -3 239 -2 239 77 -7 c43 -4 117 -16 165 -26z m-442 -815 l0 -155 105
0 105 0 0 156 0 156 48 -7 c63 -9 208 -58 280 -94 130 -66 273 -194 361 -324
52 -76 109 -207 131 -298 33 -141 46 -129 -135 -129 l-155 0 0 -105 0 -105
156 0 156 0 -7 -47 c-10 -69 -60 -216 -101 -293 -78 -149 -222 -295 -378 -384
-85 -48 -233 -101 -313 -112 l-53 -7 0 157 0 156 -105 0 -105 0 0 -155 0 -155
-23 0 c-40 0 -171 37 -248 70 -215 91 -408 285 -500 501 -32 75 -69 207 -69
246 l0 23 155 0 155 0 0 105 0 105 -156 0 -157 0 7 53 c10 71 59 216 102 297
99 188 293 361 494 440 69 28 186 59 223 59 l27 1 0 -155z m-1056 -952 c11
-91 54 -238 96 -330 163 -353 497 -606 878 -664 l82 -12 0 -240 0 -240 -72 8
c-628 61 -1186 508 -1387 1110 -38 115 -68 249 -77 348 l-7 77 240 0 241 0 6
-57z m2792 -20 c-9 -99 -39 -233 -77 -348 -201 -602 -759 -1049 -1386 -1110
l-73 -8 0 240 0 240 82 12 c381 58 716 313 878 666 42 90 86 242 96 328 l6 57
241 0 240 0 -7 -77z"/>
</g>
</svg>
