<?xml version="1.0" standalone="no"?>
<!DOCTYPE svg PUBLIC "-//W3C//DTD SVG 20010904//EN"
 "http://www.w3.org/TR/2001/REC-SVG-20010904/DTD/svg10.dtd">
<svg version="1.0" xmlns="http://www.w3.org/2000/svg"
 width="512.000000pt" height="512.000000pt" viewBox="0 0 512.000000 512.000000"
 preserveAspectRatio="xMidYMid meet">

<g transform="translate(0.000000,512.000000) scale(0.100000,-0.100000)"
fill="#000000" stroke="none">
<path d="M1142 4765 c-91 -17 -166 -53 -230 -110 -69 -62 -108 -141 -137 -277
l-5 -28 -188 0 c-196 -1 -207 -3 -230 -47 -19 -35 -14 -63 17 -94 l29 -29 186
0 186 0 0 -340 0 -340 -186 0 -186 0 -29 -29 c-31 -31 -36 -59 -17 -94 23 -44
34 -46 231 -47 l187 0 0 -340 0 -340 -172 0 c-145 0 -179 -3 -208 -18 -65 -32
-63 -119 5 -147 25 -11 78 -15 205 -15 l170 0 0 -340 0 -340 -187 0 c-197 -1
-208 -3 -231 -47 -19 -35 -14 -63 17 -94 l29 -29 186 0 186 0 0 -340 0 -340
-186 0 -186 0 -29 -29 c-31 -31 -36 -59 -17 -94 23 -44 34 -46 230 -47 l188 0
5 -27 c39 -183 108 -284 240 -348 113 -56 119 -56 1376 -53 1148 3 1154 3
1216 24 87 30 141 64 197 123 51 55 75 101 103 197 15 53 17 132 20 739 l4
680 425 425 c310 311 424 432 424 448 0 13 -6 35 -14 50 -18 32 -432 445 -463
461 -48 24 -63 15 -219 -140 l-152 -152 -5 589 c-3 430 -8 603 -17 639 -21 84
-56 152 -106 206 -56 59 -110 93 -197 123 -62 21 -66 21 -1227 23 -937 1
-1179 -1 -1238 -12z m2440 -183 c72 -29 132 -94 153 -165 13 -43 15 -156 15
-726 l0 -676 -637 -638 -638 -637 0 -245 0 -245 28 -27 27 -28 245 0 245 0
365 365 365 365 0 -586 c0 -521 -2 -593 -17 -638 -23 -73 -80 -134 -151 -163
l-57 -23 -1175 0 c-1304 0 -1228 -4 -1312 65 -41 34 -88 120 -88 162 l0 28
179 0 c162 0 181 2 203 20 14 11 28 31 30 44 7 36 -17 85 -47 96 -15 6 -105
10 -201 10 l-174 0 0 340 0 340 174 0 c96 0 186 4 201 10 30 11 54 60 47 96
-2 13 -16 33 -30 44 -23 18 -41 20 -208 20 l-184 0 0 339 0 339 184 4 c179 3
185 4 210 27 36 34 36 88 0 122 -25 23 -31 24 -210 27 l-184 4 0 339 0 339
184 0 c170 0 185 1 210 21 32 26 36 84 7 120 -19 23 -23 24 -210 27 l-191 3 0
339 0 339 191 3 c187 3 191 4 210 27 29 36 25 94 -7 120 -25 19 -40 21 -205
21 l-179 0 0 28 c1 35 29 98 64 139 32 38 98 72 163 83 27 4 566 7 1198 6
l1150 -1 57 -23z m836 -1749 l-153 -153 -152 152 -153 153 152 152 153 153
152 -152 153 -153 -152 -152z m-423 -123 l150 -150 -580 -580 -580 -580 -152
152 -153 153 577 577 c318 318 580 578 583 578 3 0 73 -68 155 -150z"/>
</g>
</svg>
