<?xml version="1.0" standalone="no"?>
<!DOCTYPE svg PUBLIC "-//W3C//DTD SVG 20010904//EN"
 "http://www.w3.org/TR/2001/REC-SVG-20010904/DTD/svg10.dtd">
<svg version="1.0" xmlns="http://www.w3.org/2000/svg"
 width="1707.000000pt" height="1580.000000pt" viewBox="0 0 1707.000000 1580.000000"
 preserveAspectRatio="xMidYMid meet">

<g transform="translate(0.000000,1580.000000) scale(0.100000,-0.100000)"
fill="#000000" stroke="none">
<path d="M16835 15737 c-44 -24 -158 -89 -253 -145 -1427 -841 -2977 -1986
-4462 -3296 -1262 -1114 -2619 -2475 -3832 -3841 -796 -897 -1678 -1963 -2362
-2855 -324 -422 -984 -1308 -1126 -1510 -65 -93 -146 -190 -159 -190 -7 0
-156 82 -516 285 -115 65 -275 155 -355 200 -147 82 -475 267 -830 467 -107
61 -229 130 -270 153 -41 24 -610 346 -1265 715 -655 370 -1204 681 -1221 691
l-32 19 -57 -70 -58 -70 28 -40 c34 -50 340 -413 689 -820 726 -846 1720
-2001 2156 -2506 124 -144 331 -384 461 -535 130 -151 397 -461 594 -689 197
-228 437 -507 534 -620 97 -112 284 -329 416 -480 132 -152 303 -348 380 -438
l139 -162 53 0 53 0 251 503 c2146 4291 4332 7647 7043 10812 1094 1277 2344
2578 3616 3765 598 558 580 540 567 564 -19 35 -91 136 -97 136 -3 0 -41 -20
-85 -43z"/>
</g>
</svg>
