<?xml version="1.0" standalone="no"?>
<!DOCTYPE svg PUBLIC "-//W3C//DTD SVG 20010904//EN"
 "http://www.w3.org/TR/2001/REC-SVG-20010904/DTD/svg10.dtd">
<svg version="1.0" xmlns="http://www.w3.org/2000/svg"
 width="800.000000pt" height="800.000000pt" viewBox="0 0 800.000000 800.000000"
 preserveAspectRatio="xMidYMid meet">

<g transform="translate(0.000000,800.000000) scale(0.100000,-0.100000)"
fill="#000000" stroke="none">
<path d="M3700 7989 c-830 -66 -1593 -372 -2240 -897 -141 -114 -465 -441
-574 -577 -506 -636 -804 -1372 -876 -2165 -13 -146 -13 -455 0 -630 74 -999
488 -1890 1201 -2585 167 -163 268 -249 432 -369 564 -410 1198 -656 1917
-743 205 -25 667 -24 875 1 508 61 952 195 1390 420 922 473 1621 1282 1959
2265 200 582 259 1195 176 1820 -142 1066 -704 2026 -1565 2672 -553 415
-1231 689 -1900 768 -258 31 -563 38 -795 20z m575 -799 c1088 -92 2069 -752
2567 -1725 233 -456 339 -882 354 -1420 29 -1022 -469 -2017 -1319 -2635 -837
-608 -1918 -774 -2901 -445 -1042 348 -1851 1243 -2097 2315 -63 279 -96 670
-78 940 63 932 539 1792 1306 2362 466 346 1074 572 1648 611 116 8 409 6 520
-3z"/>
</g>
</svg>
