<?xml version="1.0" standalone="no"?>
<!DOCTYPE svg PUBLIC "-//W3C//DTD SVG 20010904//EN"
 "http://www.w3.org/TR/2001/REC-SVG-20010904/DTD/svg10.dtd">
<svg version="1.0" xmlns="http://www.w3.org/2000/svg"
 width="800.000000pt" height="800.000000pt" viewBox="0 0 800.000000 800.000000"
 preserveAspectRatio="xMidYMid meet">

<g transform="translate(0.000000,800.000000) scale(0.100000,-0.100000)"
fill="#000000" stroke="none">
<path d="M3790 7244 c-767 -52 -1501 -378 -2051 -911 -858 -832 -1191 -2074
-864 -3223 246 -862 837 -1584 1629 -1991 383 -196 650 -279 1141 -351 121
-17 589 -17 710 0 491 72 758 155 1142 352 458 235 845 570 1149 995 143 199
305 505 394 739 322 854 270 1794 -146 2617 -445 881 -1286 1520 -2256 1714
-70 14 -178 32 -240 41 -109 14 -494 26 -608 18z m1686 -2268 c60 -28 120 -95
135 -150 17 -63 6 -160 -24 -204 -31 -47 -1875 -1809 -1925 -1839 -77 -47
-192 -39 -269 20 -23 18 -250 230 -503 472 -508 486 -510 488 -510 600 0 142
105 245 247 245 108 -1 77 24 632 -506 150 -142 276 -260 280 -262 4 -1 383
356 842 794 459 438 844 803 857 812 71 46 162 54 238 18z"/>
</g>
</svg>
