<?xml version="1.0" standalone="no"?>
<!DOCTYPE svg PUBLIC "-//W3C//DTD SVG 20010904//EN"
 "http://www.w3.org/TR/2001/REC-SVG-20010904/DTD/svg10.dtd">
<svg version="1.0" xmlns="http://www.w3.org/2000/svg"
 width="512.000000pt" height="512.000000pt" viewBox="0 0 512.000000 512.000000"
 preserveAspectRatio="xMidYMid meet">

<g transform="translate(0.000000,512.000000) scale(0.100000,-0.100000)"
fill="#000000" stroke="none">
<path d="M1892 5100 c-203 -54 -362 -198 -434 -397 -16 -44 -22 -92 -27 -203
l-6 -145 -280 -5 c-305 -6 -315 -8 -440 -74 -74 -38 -172 -129 -221 -204 -21
-31 -52 -95 -68 -142 l-31 -85 0 -1660 c0 -1580 1 -1663 18 -1725 63 -222 247
-399 463 -445 58 -12 245 -15 1175 -15 1068 0 1108 1 1183 20 207 53 365 197
438 397 16 44 22 92 27 203 l6 145 280 5 c305 6 315 8 440 74 74 38 172 129
221 204 21 31 52 95 68 142 l31 85 3 1080 c2 594 0 1096 -3 1115 -5 30 -119
147 -798 828 -436 436 -804 800 -819 808 -23 12 -120 14 -590 13 -521 0 -568
-2 -636 -19z m1090 -692 c4 -524 4 -534 27 -603 57 -176 177 -309 344 -385
108 -48 133 -50 682 -50 l515 0 0 -1022 c0 -835 -3 -1032 -14 -1074 -43 -163
-180 -288 -343 -314 -32 -6 -158 -10 -280 -10 l-223 0 0 892 0 893 -808 807
-807 808 -233 0 -232 0 0 94 c0 51 5 118 10 147 32 170 188 317 359 339 31 4
268 8 528 9 l472 1 3 -532z m1026 -856 c-238 -1 -440 2 -478 7 -138 22 -260
115 -323 248 l-32 68 -3 465 -3 465 626 -625 625 -625 -412 -3z m-2068 118 c0
-562 3 -597 68 -730 51 -104 168 -221 273 -273 132 -65 154 -67 722 -67 l507
0 0 -1009 c0 -640 -4 -1028 -10 -1062 -15 -78 -57 -155 -119 -217 -68 -69
-151 -108 -256 -122 -53 -7 -435 -10 -1145 -8 l-1065 3 -57 23 c-122 49 -215
138 -259 249 l-24 58 -3 1630 c-2 1209 0 1644 8 1685 35 162 179 303 338 330
26 4 266 8 535 9 l487 1 0 -500z m1430 -883 c0 -5 -201 -7 -447 -5 -404 4
-453 6 -498 23 -118 43 -206 123 -259 234 l-31 66 -3 465 -3 465 621 -620
c341 -341 620 -624 620 -628z"/>
</g>
</svg>
