<?xml version="1.0" standalone="no"?>
<!DOCTYPE svg PUBLIC "-//W3C//DTD SVG 20010904//EN"
 "http://www.w3.org/TR/2001/REC-SVG-20010904/DTD/svg10.dtd">
<svg version="1.0" xmlns="http://www.w3.org/2000/svg"
 width="512.000000pt" height="512.000000pt" viewBox="0 0 512.000000 512.000000"
 preserveAspectRatio="xMidYMid meet">

<g transform="translate(0.000000,512.000000) scale(0.100000,-0.100000)"
fill="#000000" stroke="none">
<path d="M1388 3587 c-642 -309 -1167 -565 -1168 -569 0 -5 4 -8 9 -8 4 0 531
-252 1170 -559 l1161 -559 913 440 c501 242 918 442 925 445 9 4 12 -93 12
-464 l0 -470 -25 -13 c-33 -18 -59 -74 -51 -113 4 -17 20 -45 36 -62 l30 -31
-85 -204 c-47 -112 -83 -205 -81 -207 2 -2 98 -2 214 -1 l210 3 -85 208 -86
208 22 15 c61 43 64 122 6 173 l-35 30 0 484 0 483 210 100 c115 54 209 101
209 104 0 4 -2319 1122 -2337 1127 -4 0 -532 -252 -1174 -560z"/>
<path d="M1250 2017 c0 -321 3 -404 15 -452 52 -199 254 -368 571 -478 228
-79 433 -111 719 -111 224 0 331 10 514 51 353 77 643 245 743 429 55 101 58
133 58 561 0 234 -4 393 -9 393 -5 0 -300 -140 -655 -310 l-646 -311 -645 311
c-355 170 -650 310 -655 310 -6 0 -10 -150 -10 -393z"/>
</g>
</svg>
