<?xml version="1.0" standalone="no"?>
<!DOCTYPE svg PUBLIC "-//W3C//DTD SVG 20010904//EN"
 "http://www.w3.org/TR/2001/REC-SVG-20010904/DTD/svg10.dtd">
<svg version="1.0" xmlns="http://www.w3.org/2000/svg"
 width="800.000000pt" height="800.000000pt" viewBox="0 0 800.000000 800.000000"
 preserveAspectRatio="xMidYMid meet">

<g transform="translate(0.000000,800.000000) scale(0.100000,-0.100000)"
fill="#000000" stroke="none">
<path d="M3927 7696 c-60 -22 -107 -65 -133 -120 l-24 -51 0 -2350 0 -2350
-552 552 c-383 383 -564 557 -590 568 -83 34 -203 4 -261 -64 -57 -68 -68
-171 -26 -251 10 -19 361 -378 781 -797 757 -756 763 -762 821 -778 53 -15 61
-15 115 0 57 16 63 22 821 778 567 566 768 773 783 805 22 48 26 130 9 175
-32 84 -124 147 -216 147 -102 0 -108 -6 -686 -592 l-534 -541 -5 2360 -5
2360 -30 49 c-56 90 -175 135 -268 100z"/>
<path d="M157 4116 c-60 -22 -107 -65 -134 -122 l-24 -52 4 -1179 c3 -1154 4
-1180 24 -1274 119 -541 487 -955 998 -1122 237 -78 -17 -71 2890 -75 1867 -2
2635 0 2724 8 520 47 972 354 1201 815 65 130 98 225 132 374 22 95 22 105 26
1246 2 854 0 1161 -9 1192 -15 54 -72 121 -123 144 -56 25 -138 24 -193 -2
-53 -25 -106 -86 -121 -138 -9 -28 -12 -334 -12 -1146 0 -1078 -1 -1109 -21
-1208 -87 -430 -434 -756 -869 -816 -64 -9 -723 -12 -2705 -9 l-2620 3 -95 27
c-193 54 -343 143 -476 280 -133 136 -210 271 -266 463 l-23 80 -5 1175 -5
1175 -23 47 c-27 55 -76 95 -140 114 -56 17 -86 17 -135 0z"/>
</g>
</svg>
