<?xml version="1.0" standalone="no"?>
<!DOCTYPE svg PUBLIC "-//W3C//DTD SVG 20010904//EN"
 "http://www.w3.org/TR/2001/REC-SVG-20010904/DTD/svg10.dtd">
<svg version="1.0" xmlns="http://www.w3.org/2000/svg"
 width="800.000000pt" height="800.000000pt" viewBox="0 0 800.000000 800.000000"
 preserveAspectRatio="xMidYMid meet">

<g transform="translate(0.000000,800.000000) scale(0.100000,-0.100000)"
fill="#000000" stroke="none">
<path d="M513 7595 c-102 -31 -185 -104 -232 -204 l-26 -56 -3 -835 -2 -835
3750 0 3751 0 -3 345 -3 345 -27 57 c-57 121 -161 198 -295 218 -43 6 -761 10
-1933 10 l-1865 0 -70 25 c-133 47 -251 146 -312 262 -49 91 -63 148 -73 277
-5 72 -16 141 -27 169 -24 65 -78 134 -136 174 -98 66 -31 63 -1301 62 -923 0
-1159 -3 -1193 -14z"/>
<path d="M315 5129 c-160 -23 -293 -160 -310 -319 -8 -69 221 -4079 236 -4140
26 -107 103 -200 207 -248 l57 -27 3495 0 3495 0 57 27 c104 48 182 141 207
248 14 57 244 4080 237 4136 -11 83 -46 156 -105 214 -69 67 -126 96 -217 110
-87 12 -7272 11 -7359 -1z"/>
</g>
</svg>
