<?xml version="1.0" standalone="no"?>
<!DOCTYPE svg PUBLIC "-//W3C//DTD SVG 20010904//EN"
 "http://www.w3.org/TR/2001/REC-SVG-20010904/DTD/svg10.dtd">
<svg version="1.0" xmlns="http://www.w3.org/2000/svg"
 width="800.000000pt" height="800.000000pt" viewBox="0 0 800.000000 800.000000"
 preserveAspectRatio="xMidYMid meet">

<g transform="translate(0.000000,800.000000) scale(0.100000,-0.100000)"
fill="#000000" stroke="none">
<path d="M1933 7410 c-317 -40 -642 -161 -905 -336 -171 -114 -363 -284 -504
-445 -512 -587 -661 -1403 -389 -2135 75 -199 203 -423 341 -595 62 -76 3512
-3321 3527 -3316 22 7 3449 3233 3502 3297 334 400 513 921 491 1430 -19 466
-178 893 -466 1254 -119 149 -339 355 -514 480 -229 164 -535 292 -829 347
-142 26 -475 37 -623 20 -387 -45 -764 -203 -1079 -451 -44 -34 -171 -155
-282 -269 l-203 -206 -202 205 c-217 220 -287 281 -440 383 -226 151 -470 251
-763 313 -105 23 -149 26 -355 29 -129 2 -267 0 -307 -5z"/>
</g>
</svg>
