<?xml version="1.0" standalone="no"?>
<!DOCTYPE svg PUBLIC "-//W3C//DTD SVG 20010904//EN"
 "http://www.w3.org/TR/2001/REC-SVG-20010904/DTD/svg10.dtd">
<svg version="1.0" xmlns="http://www.w3.org/2000/svg"
 width="225.000000pt" height="225.000000pt" viewBox="0 0 225.000000 225.000000"
 preserveAspectRatio="xMidYMid meet">

<g transform="translate(0.000000,225.000000) scale(0.100000,-0.100000)"
fill="#000000" stroke="none">
<path d="M577 2135 c-321 -27 -347 -34 -403 -117 -38 -55 -37 -54 -66 -429
-18 -250 -20 -304 -9 -340 11 -39 79 -110 549 -583 363 -363 550 -544 577
-557 52 -24 128 -24 182 1 50 22 701 665 727 717 24 48 30 116 16 170 -12 45
-52 87 -549 587 -363 365 -549 544 -576 557 -50 23 -91 23 -448 -6z m421 -79
c15 -8 260 -248 545 -534 423 -423 520 -525 526 -553 17 -78 14 -81 -347 -442
-316 -316 -341 -339 -380 -344 -22 -3 -53 -2 -69 1 -19 5 -192 171 -546 524
-285 284 -525 529 -533 544 -19 36 -18 90 7 406 23 295 30 323 90 353 25 13
94 23 274 37 308 25 398 26 433 8z"/>
<path d="M564 1771 c-128 -58 -136 -227 -15 -308 73 -50 193 -18 238 62 40 70
28 152 -30 213 -51 53 -123 65 -193 33z m132 -95 c60 -51 21 -146 -58 -146
-52 0 -88 35 -88 85 0 76 87 112 146 61z"/>
</g>
</svg>
