<?xml version="1.0" standalone="no"?>
<!DOCTYPE svg PUBLIC "-//W3C//DTD SVG 20010904//EN"
 "http://www.w3.org/TR/2001/REC-SVG-20010904/DTD/svg10.dtd">
<svg version="1.0" xmlns="http://www.w3.org/2000/svg"
 width="240.000000pt" height="240.000000pt" viewBox="0 0 240.000000 240.000000"
 preserveAspectRatio="xMidYMid meet">

<g transform="translate(0.000000,240.000000) scale(0.100000,-0.100000)"
fill="#000000" stroke="none">
<path d="M1705 2289 c-27 -4 -86 -26 -130 -48 -74 -37 -99 -59 -335 -295
l-254 -255 74 6 75 6 215 212 c233 230 267 255 384 276 265 49 506 -192 457
-457 -22 -124 -39 -145 -360 -465 -320 -321 -341 -338 -465 -360 -167 -31
-343 57 -419 211 l-35 68 -38 -39 -38 -39 24 -47 c45 -84 124 -159 214 -203
155 -76 302 -76 454 1 71 35 101 62 383 346 286 289 307 313 338 381 113 250
16 535 -223 653 -111 54 -202 68 -321 48z"/>
<path d="M993 1585 c-135 -29 -172 -58 -504 -393 -286 -288 -307 -312 -338
-380 -113 -250 -16 -534 224 -653 152 -76 298 -76 450 0 74 37 99 59 335 295
l254 255 -74 -6 -75 -6 -215 -212 c-233 -230 -267 -255 -384 -276 -265 -49
-506 192 -457 457 22 124 39 145 360 465 320 321 341 338 465 360 168 31 342
-56 419 -211 l35 -68 38 39 38 39 -24 47 c-65 120 -198 219 -337 248 -82 18
-129 18 -210 0z"/>
</g>
</svg>
