<?xml version="1.0" standalone="no"?>
<!DOCTYPE svg PUBLIC "-//W3C//DTD SVG 20010904//EN"
 "http://www.w3.org/TR/2001/REC-SVG-20010904/DTD/svg10.dtd">
<svg version="1.0" xmlns="http://www.w3.org/2000/svg"
 width="225.000000pt" height="225.000000pt" viewBox="0 0 225.000000 225.000000"
 preserveAspectRatio="xMidYMid meet">

<g transform="translate(0.000000,225.000000) scale(0.100000,-0.100000)"
fill="#000000" stroke="none">
<path d="M475 1954 c-165 -75 -311 -141 -325 -148 -14 -6 -33 -27 -42 -46 -17
-32 -18 -84 -18 -635 0 -551 1 -603 18 -635 9 -19 28 -40 42 -47 131 -63 633
-283 645 -283 30 0 57 21 71 55 12 29 14 177 14 909 0 535 -4 885 -10 900 -13
36 -47 66 -72 65 -13 0 -158 -61 -323 -135z m211 -680 c41 -20 64 -59 64 -110
0 -28 -8 -44 -34 -70 -29 -29 -41 -34 -80 -34 -64 0 -106 38 -113 101 -4 39
-1 50 23 78 44 52 83 62 140 35z"/>
<path d="M1057 1924 c-4 -4 -7 -40 -7 -81 l0 -73 210 0 210 0 0 -140 0 -140
71 0 71 0 -4 163 c-5 180 -12 207 -70 249 -32 22 -41 23 -253 26 -121 2 -224
0 -228 -4z"/>
<path d="M1708 1498 l-3 -103 -257 -3 -258 -2 0 -240 0 -240 260 0 259 0 3
-95 3 -95 223 223 223 223 -225 218 -225 217 -3 -103z"/>
<path d="M1470 660 l0 -180 -210 0 -210 0 0 -81 0 -80 229 3 c215 3 231 4 258
24 62 47 68 69 71 292 l3 202 -70 0 -71 0 0 -180z"/>
</g>
</svg>
