<?xml version="1.0" standalone="no"?>
<!DOCTYPE svg PUBLIC "-//W3C//DTD SVG 20010904//EN"
 "http://www.w3.org/TR/2001/REC-SVG-20010904/DTD/svg10.dtd">
<svg version="1.0" xmlns="http://www.w3.org/2000/svg"
 width="512.000000pt" height="512.000000pt" viewBox="0 0 512.000000 512.000000"
 preserveAspectRatio="xMidYMid meet">

<g transform="translate(0.000000,512.000000) scale(0.100000,-0.100000)"
fill="#000000" stroke="none">
<path d="M3802 4899 c-71 -12 -149 -40 -200 -73 -78 -49 -2202 -1915 -2213
-1944 -14 -35 -4 -80 23 -109 l22 -24 -137 -275 c-172 -345 -170 -323 -50
-446 l87 -89 -351 -352 c-193 -194 -356 -363 -363 -376 -26 -51 26 -141 81
-141 10 0 224 0 474 0 250 0 465 0 477 0 14 0 67 45 155 132 l133 132 89 -87
c122 -120 100 -122 445 50 l275 137 24 -22 c29 -27 74 -37 109 -23 17 6 380
413 981 1100 775 886 960 1103 986 1156 82 166 71 369 -28 523 -16 26 -166
183 -333 348 -222 221 -317 308 -353 327 -103 51 -234 73 -333 56z m218 -238
c65 -33 603 -569 637 -636 19 -37 27 -70 31 -125 8 -143 67 -67 -938 -1216
-495 -566 -904 -1030 -908 -1032 -4 -1 -275 266 -602 593 -520 520 -593 596
-580 609 8 8 473 415 1033 905 824 720 1029 894 1070 911 71 28 192 23 257 -9z
m-1926 -2570 l498 -498 -203 -102 -203 -101 -397 397 -397 397 101 203 c56
112 102 203 102 203 0 0 224 -224 499 -499z m-406 -708 l-103 -103 -305 0
-305 0 255 255 255 255 152 -152 153 -153 -102 -102z"/>
<path d="M459 821 c-47 -48 -37 -130 21 -164 26 -16 184 -17 2080 -17 1896 0
2054 1 2080 17 58 34 68 116 21 164 l-29 29 -2072 0 -2072 0 -29 -29z"/>
</g>
</svg>
