<?xml version="1.0" standalone="no"?>
<!DOCTYPE svg PUBLIC "-//W3C//DTD SVG 20010904//EN"
 "http://www.w3.org/TR/2001/REC-SVG-20010904/DTD/svg10.dtd">
<svg version="1.0" xmlns="http://www.w3.org/2000/svg"
 width="512.000000pt" height="512.000000pt" viewBox="0 0 512.000000 512.000000"
 preserveAspectRatio="xMidYMid meet">

<g transform="translate(0.000000,512.000000) scale(0.100000,-0.100000)"
fill="#000000" stroke="none">
<path d="M3915 4596 c-81 -20 -183 -72 -254 -131 -36 -30 -461 -449 -943 -932
l-876 -878 -22 -75 c-12 -41 -77 -261 -146 -488 -68 -227 -124 -423 -124 -435
0 -39 36 -85 75 -96 41 -11 11 -20 629 178 193 62 360 118 372 124 27 14 1764
1727 1829 1803 168 197 199 397 94 607 -43 84 -191 233 -275 275 -117 59 -245
76 -359 48z m223 -267 c60 -26 157 -121 189 -188 36 -73 36 -139 -2 -218 -22
-47 -65 -95 -230 -258 -111 -110 -516 -510 -898 -888 l-696 -689 -308 -98
c-169 -54 -308 -98 -309 -97 -1 1 20 72 46 157 26 85 69 228 95 318 l48 162
891 884 c490 486 907 891 926 901 86 45 166 50 248 14z"/>
<path d="M725 4223 c-88 -20 -164 -76 -196 -148 -18 -38 -19 -114 -19 -1705
l0 -1665 24 -50 c28 -60 66 -97 126 -124 45 -20 57 -21 1571 -21 1693 0 1580
-5 1653 66 20 19 46 54 59 77 l22 42 3 974 2 973 -130 -122 -130 -123 0 -818
0 -819 -1473 2 -1472 3 -3 1603 -2 1602 901 0 901 0 129 122 c71 67 129 125
129 130 0 8 -2058 9 -2095 1z"/>
</g>
</svg>
