<?xml version="1.0" standalone="no"?>
<!DOCTYPE svg PUBLIC "-//W3C//DTD SVG 20010904//EN"
 "http://www.w3.org/TR/2001/REC-SVG-20010904/DTD/svg10.dtd">
<svg version="1.0" xmlns="http://www.w3.org/2000/svg"
 width="512.000000pt" height="512.000000pt" viewBox="0 0 512.000000 512.000000"
 preserveAspectRatio="xMidYMid meet">

<g transform="translate(0.000000,512.000000) scale(0.100000,-0.100000)"
fill="#000000" stroke="none">
<path d="M2371 5110 c-492 -41 -957 -215 -1337 -500 -563 -424 -915 -1027
-1010 -1730 -23 -168 -23 -472 0 -640 78 -576 325 -1080 730 -1486 898 -898
2315 -1002 3332 -242 490 365 837 899 968 1488 80 364 80 757 0 1120 -232
1041 -1105 1837 -2164 1974 -150 20 -388 27 -519 16z m289 -1701 c354 -44 639
-295 731 -644 30 -112 30 -298 0 -410 -66 -249 -232 -453 -456 -561 -135 -66
-225 -86 -375 -86 -155 0 -243 21 -385 91 -208 104 -365 290 -434 514 -138
449 121 929 575 1066 122 37 220 46 344 30z"/>
</g>
</svg>
