<?xml version="1.0" standalone="no"?>
<!DOCTYPE svg PUBLIC "-//W3C//DTD SVG 20010904//EN"
 "http://www.w3.org/TR/2001/REC-SVG-20010904/DTD/svg10.dtd">
<svg version="1.0" xmlns="http://www.w3.org/2000/svg"
 width="215.000000pt" height="234.000000pt" viewBox="0 0 215.000000 234.000000"
 preserveAspectRatio="xMidYMid meet">

<g transform="translate(0.000000,234.000000) scale(0.100000,-0.100000)"
fill="#000000" stroke="none">
<path d="M945 2321 c-16 -11 -74 -62 -127 -113 -94 -90 -98 -95 -98 -136 0
-41 4 -47 78 -116 164 -156 197 -172 247 -122 36 36 41 69 16 111 l-20 35 70
0 c213 0 464 -112 620 -277 171 -181 253 -387 252 -633 0 -189 -45 -343 -145
-495 -274 -418 -819 -537 -1247 -274 -51 31 -96 52 -113 52 -41 0 -72 -34 -72
-79 0 -50 36 -79 189 -155 319 -158 661 -156 975 7 383 199 602 597 569 1035
-41 543 -507 979 -1046 979 l-85 0 36 40 c46 51 48 90 7 131 -34 34 -64 37
-106 10z"/>
<path d="M515 1983 c-47 -25 -144 -102 -155 -123 -22 -42 -7 -85 38 -109 30
-16 54 -7 131 48 123 88 137 117 82 172 -33 33 -53 35 -96 12z"/>
<path d="M190 1647 c-27 -13 -120 -183 -120 -219 0 -26 53 -78 80 -78 12 0 30
5 40 10 24 13 110 188 110 223 0 26 -30 67 -49 67 -5 0 -15 2 -23 5 -7 3 -24
-1 -38 -8z"/>
<path d="M933 1566 l-28 -24 -3 -295 c-2 -237 0 -302 11 -329 13 -32 29 -41
236 -132 237 -104 263 -110 296 -63 18 26 20 77 3 100 -7 9 -94 52 -193 96
l-180 79 -5 272 -5 272 -28 24 c-36 30 -68 30 -104 0z"/>
<path d="M64 1193 c-48 -9 -58 -36 -56 -150 1 -132 15 -158 82 -158 34 0 47 5
61 25 16 22 18 38 12 133 -4 78 -11 114 -22 127 -18 21 -46 29 -77 23z"/>
<path d="M144 716 c-58 -25 -59 -76 -3 -171 54 -93 76 -115 114 -115 41 0 72
23 80 60 5 24 -2 45 -37 106 -72 126 -96 145 -154 120z"/>
</g>
</svg>
