<?xml version="1.0" standalone="no"?>
<!DOCTYPE svg PUBLIC "-//W3C//DTD SVG 20010904//EN"
 "http://www.w3.org/TR/2001/REC-SVG-20010904/DTD/svg10.dtd">
<svg version="1.0" xmlns="http://www.w3.org/2000/svg"
 width="800.000000pt" height="800.000000pt" viewBox="0 0 800.000000 800.000000"
 preserveAspectRatio="xMidYMid meet">

<g transform="translate(0.000000,800.000000) scale(0.100000,-0.100000)"
fill="#000000" stroke="none">
<path d="M3563 6706 c-83 -21 -164 -66 -224 -126 -101 -100 -139 -206 -139
-387 l0 -113 -640 0 -640 0 0 -160 0 -160 164 0 164 0 6 -57 c4 -32 67 -870
141 -1862 88 -1176 140 -1821 150 -1853 54 -182 208 -331 386 -373 96 -22
2042 -22 2138 0 179 43 331 190 385 375 12 39 55 572 151 1860 74 993 137
1829 141 1858 l5 52 165 0 164 0 0 160 0 160 -639 0 -638 0 -6 133 c-4 101
-10 147 -27 196 -44 125 -154 234 -287 284 -56 21 -73 22 -463 24 -300 1 -418
-1 -457 -11z m833 -327 c64 -30 84 -79 84 -202 l0 -97 -480 0 -480 0 0 97 c0
122 20 171 83 202 40 20 58 21 396 21 338 0 357 -1 397 -21z m1027 -661 c-2
-24 -64 -852 -138 -1840 -92 -1236 -139 -1807 -148 -1830 -22 -52 -64 -95
-110 -113 -38 -14 -146 -15 -1048 -13 l-1005 3 -42 28 c-83 55 -66 -99 -216
1913 -75 995 -138 1828 -140 1852 l-6 42 1429 0 1429 0 -5 -42z"/>
<path d="M3200 3840 l0 -1280 160 0 160 0 0 1280 0 1280 -160 0 -160 0 0
-1280z"/>
<path d="M3840 3840 l0 -1280 160 0 160 0 0 1280 0 1280 -160 0 -160 0 0
-1280z"/>
<path d="M4480 3840 l0 -1280 160 0 160 0 0 1280 0 1280 -160 0 -160 0 0
-1280z"/>
</g>
</svg>
